<?xml version="1.0" encoding="UTF-8" standalone="no"?>
<svg width="122px" height="40px" viewBox="0 0 122 40" version="1.1" xmlns="http://www.w3.org/2000/svg" xmlns:xlink="http://www.w3.org/1999/xlink">
    <!-- Generator: Sketch 43.2 (39069) - http://www.bohemiancoding.com/sketch -->
    <title>Back Button</title>
    <desc>Created with Sketch.</desc>
    <defs></defs>
    <g id="Symbols" stroke="none" stroke-width="1" fill="none" fill-rule="evenodd" opacity="0.476504198">
        <g id="Back-Button">
            <g transform="translate(0.000000, 4.000000)">
                <path d="M16.5,0.5 L0.991937578,16.0080624" id="Line" stroke="#FFFFFF" stroke-width="3" stroke-linecap="round"></path>
                <path d="M16.5,15.5 L0.991937578,31.0080624" id="Line" stroke="#FFFFFF" stroke-width="3" stroke-linecap="round" transform="translate(8.500000, 23.500000) scale(1, -1) translate(-8.500000, -23.500000) "></path>
                <path d="M36.68,8.2 L44.624,8.2 C48.392,8.2 50.792,9.832 50.792,12.4 C50.792,14.176 49.688,15.592 47.912,16.096 C50.024,16.504 51.368,18.16 51.368,20.344 C51.368,23.2 48.872,25 44.912,25 L36.68,25 L36.68,8.2 Z M40.928,11.464 L40.928,14.92 L44.384,14.92 C45.632,14.92 46.424,14.248 46.424,13.168 C46.424,12.088 45.632,11.464 44.384,11.464 L40.928,11.464 Z M40.928,17.992 L40.928,21.712 L44.384,21.712 C45.968,21.712 46.952,21.016 46.952,19.816 C46.952,18.688 45.968,17.992 44.384,17.992 L40.928,17.992 Z M67,21.904 L59.656,21.904 L58.432,25 L54.04,25 L61.288,8.2 L65.68,8.2 L72.76,25 L68.2,25 L67,21.904 Z M65.752,18.664 L63.352,12.448 L60.904,18.664 L65.752,18.664 Z M83.736,8.056 C78.624,8.056 74.76,11.704 74.76,16.552 C74.76,21.472 78.528,25.192 83.592,25.192 C86.064,25.192 88.728,23.968 90.528,22.12 L88.032,19.48 C86.856,20.68 85.224,21.448 83.808,21.448 C81.144,21.448 79.128,19.312 79.128,16.504 C79.128,13.744 81.144,11.632 83.808,11.632 C85.296,11.632 86.928,12.472 88.032,13.816 L90.504,10.888 C88.824,9.16 86.232,8.056 83.736,8.056 Z M105.416,25 L110.528,25 L103.88,15.16 L110.12,8.2 L105.176,8.2 L98.744,15.472 L98.744,8.2 L94.472,8.2 L94.472,25 L98.744,25 L98.744,20.872 L100.976,18.4 L105.416,25 Z" id="BACK" fill="#FFFFFF"></path>
            </g>
        </g>
    </g>
</svg>