<?xml version="1.0" encoding="UTF-8" standalone="no"?>
<svg width="334px" height="184px" viewBox="0 0 334 184" version="1.1" xmlns="http://www.w3.org/2000/svg" xmlns:xlink="http://www.w3.org/1999/xlink">
    <!-- Generator: Sketch 43.2 (39069) - http://www.bohemiancoding.com/sketch -->
    <title>dicer-heading</title>
    <desc>Created with Sketch.</desc>
    <defs></defs>
    <g id="Page-1" stroke="none" stroke-width="1" fill="none" fill-rule="evenodd" opacity="0.579465951">
        <g id="empty-state" transform="translate(-152.000000, -56.000000)" fill="#000000">
            <g id="dicer-heading" transform="translate(152.000000, 56.000000)">
                <path d="M79.6905946,126.015279 L79.6905946,122.548901 L65.2954955,122.548901 L65.2954955,126.015279 L70.3265586,126.015279 L70.3265586,139.423423 L74.6113874,139.423423 L74.6113874,126.015279 L79.6905946,126.015279 Z M92.9141862,136.318126 L85.5481321,136.318126 L84.3204565,139.423423 L79.9152673,139.423423 L87.185033,122.572973 L91.5902222,122.572973 L98.6914835,139.423423 L94.1177898,139.423423 L92.9141862,136.318126 Z M91.6624384,133.068396 L89.2552312,126.83373 L86.7998799,133.068396 L91.6624384,133.068396 Z M113.239039,139.423423 L118.36639,139.423423 L111.698426,129.553874 L117.957165,122.572973 L112.998318,122.572973 L106.547003,129.866811 L106.547003,122.572973 L102.262174,122.572973 L102.262174,139.423423 L106.547003,139.423423 L106.547003,135.283027 L108.785706,132.803604 L113.239039,139.423423 Z M135.441514,125.943063 L135.441514,122.572973 L122.250018,122.572973 L122.250018,139.423423 L135.706306,139.423423 L135.706306,136.053333 L126.534847,136.053333 L126.534847,132.659171 L134.574919,132.659171 L134.574919,129.289081 L126.534847,129.289081 L126.534847,125.943063 L135.441514,125.943063 Z M159.264841,136.318126 L151.898787,136.318126 L150.671111,139.423423 L146.265922,139.423423 L153.535688,122.572973 L157.940877,122.572973 L165.042138,139.423423 L160.468444,139.423423 L159.264841,136.318126 Z M158.013093,133.068396 L155.605886,126.83373 L153.150535,133.068396 L158.013093,133.068396 Z M176.203556,122.572973 L183.545538,122.572973 C187.854438,122.572973 190.333862,124.691315 190.333862,128.446559 C190.333862,132.394378 187.854438,134.681225 183.545538,134.681225 L180.488384,134.681225 L180.488384,139.423423 L176.203556,139.423423 L176.203556,122.572973 Z M180.488384,125.943063 L180.488384,131.311135 L183.328889,131.311135 C185.206511,131.311135 186.289754,130.372324 186.289754,128.590991 C186.289754,126.83373 185.206511,125.943063 183.328889,125.943063 L180.488384,125.943063 Z M210.129129,139.423423 L210.129129,122.572973 L205.8443,122.572973 L205.8443,129.50573 L198.863399,129.50573 L198.863399,122.572973 L194.578571,122.572973 L194.578571,139.423423 L198.863399,139.423423 L198.863399,132.87582 L205.8443,132.87582 L205.8443,139.423423 L210.129129,139.423423 Z M223.497153,122.428541 C228.720793,122.428541 232.620468,126.087495 232.620468,130.974126 C232.620468,135.884829 228.720793,139.616 223.497153,139.616 C218.297586,139.616 214.39791,135.908901 214.39791,130.974126 C214.39791,126.063423 218.297586,122.428541 223.497153,122.428541 Z M223.545297,126.015279 C220.945514,126.015279 218.779027,128.157694 218.779027,130.998198 C218.779027,133.838703 220.969586,136.029261 223.545297,136.029261 C226.145081,136.029261 228.215279,133.838703 228.215279,130.998198 C228.215279,128.157694 226.145081,126.015279 223.545297,126.015279 Z M249.21415,126.015279 L249.21415,122.548901 L234.819051,122.548901 L234.819051,126.015279 L239.850114,126.015279 L239.850114,139.423423 L244.134943,139.423423 L244.134943,126.015279 L249.21415,126.015279 Z M260.174967,122.428541 C265.398607,122.428541 269.298282,126.087495 269.298282,130.974126 C269.298282,135.884829 265.398607,139.616 260.174967,139.616 C254.975399,139.616 251.075724,135.908901 251.075724,130.974126 C251.075724,126.063423 254.975399,122.428541 260.174967,122.428541 Z M260.223111,126.015279 C257.623327,126.015279 255.456841,128.157694 255.456841,130.998198 C255.456841,133.838703 257.647399,136.029261 260.223111,136.029261 C262.822895,136.029261 264.893093,133.838703 264.893093,130.998198 C264.893093,128.157694 262.822895,126.015279 260.223111,126.015279 Z M14.6518679,170.147411 L14.6518679,166.681033 L0.256768769,166.681033 L0.256768769,170.147411 L5.28783183,170.147411 L5.28783183,183.555556 L9.57266066,183.555556 L9.57266066,170.147411 L14.6518679,170.147411 Z M34.0379099,183.555556 L34.0379099,166.705105 L29.7530811,166.705105 L29.7530811,173.637862 L22.7721802,173.637862 L22.7721802,166.705105 L18.4873514,166.705105 L18.4873514,183.555556 L22.7721802,183.555556 L22.7721802,177.007952 L29.7530811,177.007952 L29.7530811,183.555556 L34.0379099,183.555556 Z M52.6055015,170.075195 L52.6055015,166.705105 L39.414006,166.705105 L39.414006,183.555556 L52.8702943,183.555556 L52.8702943,180.185465 L43.6988348,180.185465 L43.6988348,176.791303 L51.7389069,176.791303 L51.7389069,173.421213 L43.6988348,173.421213 L43.6988348,170.075195 L52.6055015,170.075195 Z M73.1951471,183.555556 L73.1951471,166.705105 L69.1991832,166.705105 L69.1991832,177.10424 L61.4239039,166.705105 L57.6445886,166.705105 L57.6445886,183.555556 L61.6646246,183.555556 L61.6646246,173.180492 L69.4158318,183.555556 L73.1951471,183.555556 Z M99.0405285,170.147411 L99.0405285,166.681033 L84.6454294,166.681033 L84.6454294,170.147411 L89.6764925,170.147411 L89.6764925,183.555556 L93.9613213,183.555556 L93.9613213,170.147411 L99.0405285,170.147411 Z M118.426571,183.555556 L118.426571,166.705105 L114.141742,166.705105 L114.141742,173.637862 L107.160841,173.637862 L107.160841,166.705105 L102.876012,166.705105 L102.876012,183.555556 L107.160841,183.555556 L107.160841,177.007952 L114.141742,177.007952 L114.141742,183.555556 L118.426571,183.555556 Z M133.961081,183.555556 L131.457586,178.813357 L128.087495,178.813357 L128.087495,183.555556 L123.802667,183.555556 L123.802667,166.705105 L131.337225,166.705105 C135.790559,166.705105 138.342198,168.823447 138.342198,172.578691 C138.342198,175.154402 137.258955,177.007952 135.285045,177.994907 L138.82364,183.555556 L133.961081,183.555556 Z M128.087495,175.443267 L131.337225,175.443267 C133.190775,175.443267 134.274018,174.504456 134.274018,172.723123 C134.274018,170.965862 133.190775,170.075195 131.337225,170.075195 L128.087495,170.075195 L128.087495,175.443267 Z M151.228781,166.560673 C156.45242,166.560673 160.352096,170.219628 160.352096,175.106258 C160.352096,180.016961 156.45242,183.748132 151.228781,183.748132 C146.029213,183.748132 142.129538,180.041033 142.129538,175.106258 C142.129538,170.195556 146.029213,166.560673 151.228781,166.560673 Z M151.276925,170.147411 C148.677141,170.147411 146.510655,172.289826 146.510655,175.13033 C146.510655,177.970835 148.701213,180.161393 151.276925,180.161393 C153.876709,180.161393 155.946907,177.970835 155.946907,175.13033 C155.946907,172.289826 153.876709,170.147411 151.276925,170.147411 Z M183.324877,183.555556 L188.885526,166.705105 L184.504408,166.705105 L181.254679,179.102222 L177.956805,166.705105 L173.768264,166.705105 L170.542607,179.102222 L167.244733,166.705105 L162.671039,166.705105 L168.183544,183.555556 L172.612805,183.555556 L175.790318,171.904673 L178.919688,183.555556 L183.324877,183.555556 Z M212.877357,170.147411 L212.877357,166.681033 L198.482258,166.681033 L198.482258,170.147411 L203.513321,170.147411 L203.513321,183.555556 L207.79815,183.555556 L207.79815,170.147411 L212.877357,170.147411 Z M232.263399,183.555556 L232.263399,166.705105 L227.978571,166.705105 L227.978571,173.637862 L220.99767,173.637862 L220.99767,166.705105 L216.712841,166.705105 L216.712841,183.555556 L220.99767,183.555556 L220.99767,177.007952 L227.978571,177.007952 L227.978571,183.555556 L232.263399,183.555556 Z M250.830991,170.075195 L250.830991,166.705105 L237.639495,166.705105 L237.639495,183.555556 L251.095784,183.555556 L251.095784,180.185465 L241.924324,180.185465 L241.924324,176.791303 L249.964396,176.791303 L249.964396,173.421213 L241.924324,173.421213 L241.924324,170.075195 L250.830991,170.075195 Z M263.460805,166.705105 L270.706498,166.705105 C276.002354,166.705105 279.661309,170.123339 279.661309,175.13033 C279.661309,180.113249 275.95421,183.555556 270.537994,183.555556 L263.460805,183.555556 L263.460805,166.705105 Z M267.745634,170.123339 L267.745634,180.137321 L270.802787,180.137321 C273.426643,180.137321 275.304264,178.115267 275.304264,175.154402 C275.304264,172.169465 273.330354,170.123339 270.61021,170.123339 L267.745634,170.123339 Z M288.214919,183.555556 L288.214919,166.705105 L283.93009,166.705105 L283.93009,183.555556 L288.214919,183.555556 Z M301.486655,166.560673 C296.359303,166.560673 292.4837,170.219628 292.4837,175.082186 C292.4837,180.016961 296.263015,183.748132 301.342222,183.748132 C303.821646,183.748132 306.493646,182.520456 308.299051,180.666907 L305.795556,178.018979 C304.616024,179.222583 302.979123,179.992889 301.558871,179.992889 C298.886871,179.992889 296.864817,177.850474 296.864817,175.034042 C296.864817,172.265754 298.886871,170.147411 301.558871,170.147411 C303.051339,170.147411 304.68824,170.989934 305.795556,172.33797 L308.274979,169.401177 C306.589934,167.667988 303.99015,166.560673 301.486655,166.560673 Z M325.44639,170.075195 L325.44639,166.705105 L312.254895,166.705105 L312.254895,183.555556 L325.711183,183.555556 L325.711183,180.185465 L316.539724,180.185465 L316.539724,176.791303 L324.579796,176.791303 L324.579796,173.421213 L316.539724,173.421213 L316.539724,170.075195 L325.44639,170.075195 Z M334,171.086222 L334,166.801393 L330.05218,166.801393 L330.05218,171.086222 L330.774342,177.778258 L333.277838,177.778258 L334,171.086222 Z M331.953874,179.728096 C330.798414,179.728096 329.955892,180.546547 329.955892,181.726078 C329.955892,182.929682 330.798414,183.748132 331.953874,183.748132 C333.133405,183.748132 333.975928,182.929682 333.975928,181.726078 C333.975928,180.546547 333.133405,179.728096 331.953874,179.728096 Z" id="TAKE-A-PHOTO-THEN-TH"></path>
                <path d="M57.7194791,1.2036036 L77.0413289,1.2036036 C91.1636112,1.2036036 100.920824,10.3188949 100.920824,23.6708709 C100.920824,36.9586547 91.0352268,46.1381381 76.5919836,46.1381381 L57.7194791,46.1381381 L57.7194791,1.2036036 Z M69.1456893,10.3188949 L69.1456893,37.0228468 L77.2980977,37.0228468 C84.2950466,37.0228468 89.3020376,31.6307027 89.3020376,23.7350631 C89.3020376,15.7752312 84.0382779,10.3188949 76.7845602,10.3188949 L69.1456893,10.3188949 Z M123.73045,46.1381381 L123.73045,1.2036036 L112.30424,1.2036036 L112.30424,46.1381381 L123.73045,46.1381381 Z M159.121746,0.81845045 C145.448809,0.81845045 135.113866,10.5756637 135.113866,23.5424865 C135.113866,36.7018859 145.19204,46.6516757 158.736593,46.6516757 C165.348388,46.6516757 172.473722,43.3778739 177.288136,38.4350751 L170.612148,31.3739339 C167.466731,34.5835435 163.101662,36.6376937 159.314322,36.6376937 C152.188989,36.6376937 146.796845,30.9245886 146.796845,23.4141021 C146.796845,16.032 152.188989,10.3830871 159.314322,10.3830871 C163.294238,10.3830871 167.659307,12.6298138 170.612148,16.2245766 L177.223944,8.39312913 C172.73049,3.77129129 165.797734,0.81845045 159.121746,0.81845045 Z M223.014374,10.1905105 L223.014374,1.2036036 L187.837053,1.2036036 L187.837053,46.1381381 L223.720489,46.1381381 L223.720489,37.1512312 L199.263263,37.1512312 L199.263263,28.1001321 L220.703456,28.1001321 L220.703456,19.1132252 L199.263263,19.1132252 L199.263263,10.1905105 L223.014374,10.1905105 Z M263.541045,46.1381381 L256.865057,33.4922763 L247.87815,33.4922763 L247.87815,46.1381381 L236.45194,46.1381381 L236.45194,1.2036036 L256.544096,1.2036036 C268.419652,1.2036036 275.224024,6.85251652 275.224024,16.8664985 C275.224024,23.7350631 272.335376,28.6778619 267.071616,31.3097417 L276.507868,46.1381381 L263.541045,46.1381381 Z M247.87815,24.5053694 L256.544096,24.5053694 C261.486895,24.5053694 264.375544,22.0018739 264.375544,17.2516517 C264.375544,12.5656216 261.486895,10.1905105 256.544096,10.1905105 L247.87815,10.1905105 L247.87815,24.5053694 Z" id="DICER"></path>
            </g>
        </g>
    </g>
</svg>