<?xml version="1.0" encoding="UTF-8" standalone="no"?>
<svg width="220px" height="272px" viewBox="0 0 220 272" version="1.1" xmlns="http://www.w3.org/2000/svg" xmlns:xlink="http://www.w3.org/1999/xlink">
    <!-- Generator: Sketch 43.2 (39069) - http://www.bohemiancoding.com/sketch -->
    <title>start-btn-hover</title>
    <desc>Created with Sketch.</desc>
    <defs></defs>
    <g id="Symbols" stroke="none" stroke-width="1" fill="none" fill-rule="evenodd">
        <g id="start-btn-hover">
            <g id="start-btn">
                <rect id="Rectangle" fill-opacity="0" fill="#000000" x="0" y="0" width="220" height="272"></rect>
                <g id="Group" transform="translate(44.000000, 209.000000)" fill="#000000" opacity="0.579465951">
                    <path d="M29.216,15.008 C25.184,15.008 22.52,16.976 22.52,20.072 C22.52,26.024 31.4,24.248 31.4,27.224 C31.4,28.184 30.56,28.688 29.216,28.688 C27.464,28.688 24.872,27.68 23.144,26.168 L21.488,29.456 C23.48,31.088 26.36,32.144 29.168,32.144 C32.912,32.144 35.888,30.368 35.888,27.008 C35.888,20.936 27.008,22.592 27.008,19.688 C27.008,18.872 27.752,18.464 28.856,18.464 C30.224,18.464 32.456,19.184 34.232,20.216 L35.84,16.88 C34.112,15.752 31.64,15.008 29.216,15.008 Z M53.056,18.632 L53.056,15.176 L38.704,15.176 L38.704,18.632 L43.72,18.632 L43.72,32 L47.992,32 L47.992,18.632 L53.056,18.632 Z M66.24,28.904 L58.896,28.904 L57.672,32 L53.28,32 L60.528,15.2 L64.92,15.2 L72,32 L67.44,32 L66.24,28.904 Z M64.992,25.664 L62.592,19.448 L60.144,25.664 L64.992,25.664 Z M85.688,32 L83.192,27.272 L79.832,27.272 L79.832,32 L75.56,32 L75.56,15.2 L83.072,15.2 C87.512,15.2 90.056,17.312 90.056,21.056 C90.056,23.624 88.976,25.472 87.008,26.456 L90.536,32 L85.688,32 Z M79.832,23.912 L83.072,23.912 C84.92,23.912 86,22.976 86,21.2 C86,19.448 84.92,18.56 83.072,18.56 L79.832,18.56 L79.832,23.912 Z M107.776,18.632 L107.776,15.176 L93.424,15.176 L93.424,18.632 L98.44,18.632 L98.44,32 L102.712,32 L102.712,18.632 L107.776,18.632 Z" id="text"></path>
                </g>
                <circle id="Pointer" stroke="#FFFFFF" stroke-width="6" fill-opacity="0.504783741" fill="#000000" cx="109" cy="107" r="82"></circle>
                <circle id="Pointer-Copy" stroke="#FFFFFF" stroke-width="3" fill-opacity="0.518880208" fill="#FF0C0C" cx="109" cy="107" r="37"></circle>
            </g>
        </g>
    </g>
</svg>